<svg width="30" height="30" viewBox="0 0 30 30" fill="none" xmlns="http://www.w3.org/2000/svg">
<g clip-path="url(#clip0_2506_80327)">
<path d="M1.6665 1.66602H3.40805C3.73607 1.66602 3.90008 1.66602 4.03207 1.72634C4.14839 1.7795 4.24696 1.86499 4.31603 1.97262C4.39441 2.09475 4.4176 2.25712 4.46399 2.58184L5.09507 6.99936M5.09507 6.99936L6.49759 17.3079C6.67557 18.616 6.76456 19.2701 7.0773 19.7625C7.35287 20.1963 7.74794 20.5413 8.21497 20.7558C8.74498 20.9993 9.40509 20.9993 10.7253 20.9993H22.1358C23.3926 20.9993 24.021 20.9993 24.5345 20.7732C24.9873 20.5739 25.3757 20.2525 25.6562 19.845C25.9744 19.3828 26.092 18.7656 26.3272 17.531L28.092 8.26561C28.1748 7.8311 28.2161 7.61385 28.1562 7.44402C28.1036 7.29505 27.9998 7.1696 27.8633 7.09005C27.7077 6.99936 27.4865 6.99936 27.0442 6.99936H5.09507ZM12.3332 26.9993C12.3332 27.7357 11.7362 28.3327 10.9999 28.3327C10.2635 28.3327 9.6665 27.7357 9.6665 26.9993C9.6665 26.263 10.2635 25.666 10.9999 25.666C11.7362 25.666 12.3332 26.263 12.3332 26.9993ZM22.9999 26.9993C22.9999 27.7357 22.4029 28.3327 21.6665 28.3327C20.9301 28.3327 20.3332 27.7357 20.3332 26.9993C20.3332 26.263 20.9301 25.666 21.6665 25.666C22.4029 25.666 22.9999 26.263 22.9999 26.9993Z" stroke="#3A3F43" stroke-width="2" stroke-linecap="round" stroke-linejoin="round"/>
</g>
<defs>
<clipPath id="clip0_2506_80327">
<rect width="30" height="30" fill="white"/>
</clipPath>
</defs>
</svg>
