<svg width="26" height="26" viewBox="0 0 26 26" fill="none" xmlns="http://www.w3.org/2000/svg">
<path fill-rule="evenodd" clip-rule="evenodd" d="M8.49805 3.24609C8.91226 3.24609 9.24805 3.58188 9.24805 3.99609V6.99734C9.24805 7.41156 8.91226 7.74734 8.49805 7.74734C8.08383 7.74734 7.74805 7.41156 7.74805 6.99734V3.99609C7.74805 3.58188 8.08383 3.24609 8.49805 3.24609Z" fill="#747883"/>
<path fill-rule="evenodd" clip-rule="evenodd" d="M17.5024 3.24609C17.9167 3.24609 18.2524 3.58188 18.2524 3.99609V6.99734C18.2524 7.41156 17.9167 7.74734 17.5024 7.74734C17.0882 7.74734 16.7524 7.41156 16.7524 6.99734V3.99609C16.7524 3.58188 17.0882 3.24609 17.5024 3.24609Z" fill="#747883"/>
<path fill-rule="evenodd" clip-rule="evenodd" d="M3.24609 10.499C3.24609 10.0848 3.58188 9.74902 3.99609 9.74902H22.0036C22.4178 9.74902 22.7536 10.0848 22.7536 10.499C22.7536 10.9132 22.4178 11.249 22.0036 11.249H3.99609C3.58188 11.249 3.24609 10.9132 3.24609 10.499Z" fill="#747883"/>
<path fill-rule="evenodd" clip-rule="evenodd" d="M6.99609 6.24707C5.75345 6.24707 4.74609 7.25443 4.74609 8.49707V19.004C4.74609 20.2466 5.75345 21.254 6.99609 21.254H19.0036C20.2462 21.254 21.2536 20.2466 21.2536 19.004V8.49707C21.2536 7.25443 20.2462 6.24707 19.0036 6.24707H6.99609ZM3.24609 8.49707C3.24609 6.426 4.92503 4.74707 6.99609 4.74707H19.0036C21.0747 4.74707 22.7536 6.426 22.7536 8.49707V19.004C22.7536 21.075 21.0747 22.754 19.0036 22.754H6.99609C4.92503 22.754 3.24609 21.075 3.24609 19.004V8.49707Z" fill="#747883"/>
</svg>
