<svg width="24" height="24" viewBox="0 0 24 24" fill="none" xmlns="http://www.w3.org/2000/svg">
<path fill-rule="evenodd" clip-rule="evenodd" d="M15.3602 8.63959C15.6531 8.93248 15.6531 9.40736 15.3602 9.70025L9.70025 15.3602C9.40736 15.6531 8.93248 15.6531 8.63959 15.3602C8.3467 15.0673 8.3467 14.5925 8.63959 14.2996L14.2996 8.63959C14.5925 8.3467 15.0673 8.3467 15.3602 8.63959Z" fill="#9A9C9E"/>
<path fill-rule="evenodd" clip-rule="evenodd" d="M8.63959 8.63959C8.93248 8.3467 9.40736 8.3467 9.70025 8.63959L15.3602 14.2996C15.6531 14.5925 15.6531 15.0673 15.3602 15.3602C15.0673 15.6531 14.5925 15.6531 14.2996 15.3602L8.63959 9.70025C8.3467 9.40736 8.3467 8.93248 8.63959 8.63959Z" fill="#9A9C9E"/>
<path fill-rule="evenodd" clip-rule="evenodd" d="M12 3.75C7.44321 3.75 3.75 7.44321 3.75 12C3.75 16.5568 7.44321 20.25 12 20.25C16.5568 20.25 20.25 16.5568 20.25 12C20.25 7.44321 16.5568 3.75 12 3.75ZM2.25 12C2.25 6.61479 6.61479 2.25 12 2.25C17.3852 2.25 21.75 6.61479 21.75 12C21.75 17.3852 17.3852 21.75 12 21.75C6.61479 21.75 2.25 17.3852 2.25 12Z" fill="#9A9C9E"/>
</svg>
