<svg width="32" height="32" viewBox="0 0 32 32" fill="none" xmlns="http://www.w3.org/2000/svg">
<path d="M29.3333 18.661H24.6667C24.2985 18.661 24 18.3625 24 17.9943V13.3276H28.2667" stroke="#E31E24" stroke-width="2" stroke-linecap="round" stroke-linejoin="round"/>
<path d="M29.3333 18.661H24.6667C24.2985 18.661 24 18.3625 24 17.9943V13.3276H28.2667" stroke="#F53036" stroke-width="2" stroke-linecap="round" stroke-linejoin="round"/>
<path d="M24.7423 24.5857C25.3143 25.1577 25.4855 26.0179 25.176 26.7653C24.8665 27.5127 24.1372 28 23.3283 28C22.5194 28.0001 21.7901 27.5128 21.4805 26.7655C21.1709 26.0182 21.3419 25.1579 21.9139 24.5859L21.914 24.5857C22.695 23.8048 23.9613 23.8048 24.7423 24.5857V24.5857" stroke="#E31E24" stroke-width="2" stroke-linecap="round" stroke-linejoin="round"/>
<path d="M24.7423 24.5857C25.3143 25.1577 25.4855 26.0179 25.176 26.7653C24.8665 27.5127 24.1372 28 23.3283 28C22.5194 28.0001 21.7901 27.5128 21.4805 26.7655C21.1709 26.0182 21.3419 25.1579 21.9139 24.5859L21.914 24.5857C22.695 23.8048 23.9613 23.8048 24.7423 24.5857V24.5857" stroke="#F53036" stroke-width="2" stroke-linecap="round" stroke-linejoin="round"/>
<path d="M10.0753 24.5859C10.6474 25.1579 10.8185 26.0181 10.509 26.7655C10.1995 27.5128 9.47022 28.0002 8.6613 28.0002C7.85237 28.0002 7.12307 27.513 6.81347 26.7657C6.50387 26.0183 6.67494 25.1581 7.2469 24.5861V24.5861L7.2473 24.5856C8.02817 23.8048 9.29421 23.8048 10.0751 24.5856L10.0753 24.5859V24.5859" stroke="#E31E24" stroke-width="2" stroke-linecap="round" stroke-linejoin="round"/>
<path d="M10.0753 24.5859C10.6474 25.1579 10.8185 26.0181 10.509 26.7655C10.1995 27.5128 9.47022 28.0002 8.6613 28.0002C7.85237 28.0002 7.12307 27.513 6.81347 26.7657C6.50387 26.0183 6.67494 25.1581 7.2469 24.5861V24.5861L7.2473 24.5856C8.02817 23.8048 9.29421 23.8048 10.0751 24.5856L10.0753 24.5859V24.5859" stroke="#F53036" stroke-width="2" stroke-linecap="round" stroke-linejoin="round"/>
<path d="M21.4415 25.3332H10.5469" stroke="#E31E24" stroke-width="2" stroke-linecap="round" stroke-linejoin="round"/>
<path d="M21.4415 25.3332H10.5469" stroke="#F53036" stroke-width="2" stroke-linecap="round" stroke-linejoin="round"/>
<path d="M25.2139 25.3331H28C28.7364 25.3331 29.3333 24.7362 29.3333 23.9998V16.5081C29.3333 16.1691 29.2686 15.8331 29.1427 15.5183L27.3364 11.0038C26.9314 9.99145 25.9509 9.32765 24.8605 9.32764H20" stroke="#E31E24" stroke-width="2" stroke-linecap="round" stroke-linejoin="round"/>
<path d="M25.2139 25.3331H28C28.7364 25.3331 29.3333 24.7362 29.3333 23.9998V16.5081C29.3333 16.1691 29.2686 15.8331 29.1427 15.5183L27.3364 11.0038C26.9314 9.99145 25.9509 9.32765 24.8605 9.32764H20" stroke="#F53036" stroke-width="2" stroke-linecap="round" stroke-linejoin="round"/>
<path d="M6.77578 25.3333H4.00033C3.26395 25.3333 2.66699 24.7364 2.66699 24V16" stroke="#E31E24" stroke-width="2" stroke-linecap="round" stroke-linejoin="round"/>
<path d="M6.77578 25.3333H4.00033C3.26395 25.3333 2.66699 24.7364 2.66699 24V16" stroke="#F53036" stroke-width="2" stroke-linecap="round" stroke-linejoin="round"/>
<path d="M2.66699 19.9945H18.667C19.4034 19.9945 20.0003 19.3975 20.0003 18.6611V7.99447C20.0003 7.25809 19.4034 6.66113 18.667 6.66113H16.0003" stroke="#E31E24" stroke-width="2" stroke-linecap="round" stroke-linejoin="round"/>
<path d="M2.66699 19.9945H18.667C19.4034 19.9945 20.0003 19.3975 20.0003 18.6611V7.99447C20.0003 7.25809 19.4034 6.66113 18.667 6.66113H16.0003" stroke="#F53036" stroke-width="2" stroke-linecap="round" stroke-linejoin="round"/>
<path d="M2.66699 7.3335C2.66699 9.51819 5.05099 11.8519 6.41099 13.006C6.94809 13.4427 7.71789 13.4427 8.25499 13.006C9.61633 11.8519 12.0003 9.51819 12.0003 7.3335" stroke="#E31E24" stroke-width="2" stroke-linecap="round" stroke-linejoin="round"/>
<path d="M2.66699 7.3335C2.66699 9.51819 5.05099 11.8519 6.41099 13.006C6.94809 13.4427 7.71789 13.4427 8.25499 13.006C9.61633 11.8519 12.0003 9.51819 12.0003 7.3335" stroke="#F53036" stroke-width="2" stroke-linecap="round" stroke-linejoin="round"/>
<path d="M7.33499 6.98651C7.52628 6.98725 7.68082 7.14278 7.68033 7.33406C7.67984 7.52535 7.5245 7.68009 7.33322 7.67984C7.14193 7.6796 6.987 7.52446 6.98699 7.33318C6.9865 7.24086 7.02305 7.15219 7.08846 7.08703C7.15387 7.02187 7.24267 6.98566 7.33499 6.98651" stroke="#E31E24" stroke-width="2" stroke-linecap="round" stroke-linejoin="round"/>
<path d="M7.33499 6.98651C7.52628 6.98725 7.68082 7.14278 7.68033 7.33406C7.67984 7.52535 7.5245 7.68009 7.33322 7.67984C7.14193 7.6796 6.987 7.52446 6.98699 7.33318C6.9865 7.24086 7.02305 7.15219 7.08846 7.08703C7.15387 7.02187 7.24267 6.98566 7.33499 6.98651" stroke="#F53036" stroke-width="2" stroke-linecap="round" stroke-linejoin="round"/>
<path d="M2.66699 7.33317V7.33317C2.66699 4.75584 4.75633 2.6665 7.33366 2.6665V2.6665C9.91099 2.6665 12.0003 4.75584 12.0003 7.33317V7.33317" stroke="#E31E24" stroke-width="2" stroke-linecap="round" stroke-linejoin="round"/>
<path d="M2.66699 7.33317V7.33317C2.66699 4.75584 4.75633 2.6665 7.33366 2.6665V2.6665C9.91099 2.6665 12.0003 4.75584 12.0003 7.33317V7.33317" stroke="#F53036" stroke-width="2" stroke-linecap="round" stroke-linejoin="round"/>
</svg>
