<svg width="22" height="18" viewBox="0 0 22 18" fill="none" xmlns="http://www.w3.org/2000/svg">
<g clip-path="url(#clip0_2506_80290)">
<path fill-rule="evenodd" clip-rule="evenodd" d="M3.8 2.25C2.66782 2.25 1.75 3.16782 1.75 4.3V13.7C1.75 14.8322 2.66782 15.75 3.8 15.75H18.2C19.3322 15.75 20.25 14.8322 20.25 13.7V4.3C20.25 3.16782 19.3322 2.25 18.2 2.25H3.8ZM0.25 4.3C0.25 2.33939 1.83939 0.75 3.8 0.75H18.2C20.1606 0.75 21.75 2.33939 21.75 4.3V13.7C21.75 15.6606 20.1606 17.25 18.2 17.25H3.8C1.83939 17.25 0.25 15.6606 0.25 13.7V4.3Z" fill="#E31E24"/>
<path fill-rule="evenodd" clip-rule="evenodd" d="M3.8 2.25C2.66782 2.25 1.75 3.16782 1.75 4.3V13.7C1.75 14.8322 2.66782 15.75 3.8 15.75H18.2C19.3322 15.75 20.25 14.8322 20.25 13.7V4.3C20.25 3.16782 19.3322 2.25 18.2 2.25H3.8ZM0.25 4.3C0.25 2.33939 1.83939 0.75 3.8 0.75H18.2C20.1606 0.75 21.75 2.33939 21.75 4.3V13.7C21.75 15.6606 20.1606 17.25 18.2 17.25H3.8C1.83939 17.25 0.25 15.6606 0.25 13.7V4.3Z" fill="#F53036"/>
<path fill-rule="evenodd" clip-rule="evenodd" d="M5.40004 6.05004C5.64857 5.71867 6.11867 5.65152 6.45004 5.90004L10.85 9.20004C10.939 9.26674 11.0611 9.26674 11.15 9.20004L15.55 5.90004C15.8814 5.65152 16.3515 5.71867 16.6 6.05004C16.8486 6.38141 16.7814 6.85152 16.45 7.10004L12.05 10.4C11.4278 10.8667 10.5723 10.8667 9.95004 10.4L5.55004 7.10004C5.21867 6.85152 5.15152 6.38141 5.40004 6.05004Z" fill="#E31E24"/>
<path fill-rule="evenodd" clip-rule="evenodd" d="M5.40004 6.05004C5.64857 5.71867 6.11867 5.65152 6.45004 5.90004L10.85 9.20004C10.939 9.26674 11.0611 9.26674 11.15 9.20004L15.55 5.90004C15.8814 5.65152 16.3515 5.71867 16.6 6.05004C16.8486 6.38141 16.7814 6.85152 16.45 7.10004L12.05 10.4C11.4278 10.8667 10.5723 10.8667 9.95004 10.4L5.55004 7.10004C5.21867 6.85152 5.15152 6.38141 5.40004 6.05004Z" fill="#F53036"/>
</g>
<defs>
<clipPath id="clip0_2506_80290">
<rect width="22" height="18" fill="white"/>
</clipPath>
</defs>
</svg>
