<svg width="44" height="44" viewBox="0 0 44 44" fill="none" xmlns="http://www.w3.org/2000/svg">
<rect width="44" height="44" rx="22" fill="#E31E24"/>
<rect width="44" height="44" rx="22" fill="#F53036"/>
<path d="M25.0004 19.9999H22.0004V16.9999C22.0004 16.7347 21.895 16.4803 21.7075 16.2928C21.52 16.1053 21.2656 15.9999 21.0004 15.9999C20.7352 15.9999 20.4808 16.1053 20.2933 16.2928C20.1058 16.4803 20.0004 16.7347 20.0004 16.9999V19.9999H17.0004C16.7352 19.9999 16.4808 20.1053 16.2933 20.2928C16.1058 20.4803 16.0004 20.7347 16.0004 20.9999C16.0004 21.2651 16.1058 21.5195 16.2933 21.707C16.4808 21.8945 16.7352 21.9999 17.0004 21.9999H20.0004V24.9999C20.0004 25.2651 20.1058 25.5195 20.2933 25.707C20.4808 25.8945 20.7352 25.9999 21.0004 25.9999C21.2656 25.9999 21.52 25.8945 21.7075 25.707C21.895 25.5195 22.0004 25.2651 22.0004 24.9999V21.9999H25.0004C25.2656 21.9999 25.52 21.8945 25.7075 21.707C25.895 21.5195 26.0004 21.2651 26.0004 20.9999C26.0004 20.7347 25.895 20.4803 25.7075 20.2928C25.52 20.1053 25.2656 19.9999 25.0004 19.9999ZM31.7104 30.2899L28.0004 26.6099C29.4405 24.8143 30.1379 22.5352 29.9492 20.2412C29.7605 17.9472 28.7001 15.8127 26.9859 14.2765C25.2718 12.7404 23.0342 11.9194 20.7333 11.9824C18.4324 12.0453 16.2431 12.9875 14.6155 14.615C12.988 16.2426 12.0458 18.4319 11.9829 20.7328C11.9199 23.0337 12.7409 25.2713 14.277 26.9854C15.8132 28.6996 17.9477 29.76 20.2417 29.9487C22.5357 30.1374 24.8148 29.44 26.6104 27.9999L30.2904 31.6799C30.3834 31.7736 30.494 31.848 30.6158 31.8988C30.7377 31.9496 30.8684 31.9757 31.0004 31.9757C31.1324 31.9757 31.2631 31.9496 31.385 31.8988C31.5068 31.848 31.6174 31.7736 31.7104 31.6799C31.8906 31.4934 31.9914 31.2442 31.9914 30.9849C31.9914 30.7256 31.8906 30.4764 31.7104 30.2899ZM21.0004 27.9999C19.6159 27.9999 18.2625 27.5894 17.1114 26.8202C15.9603 26.051 15.063 24.9578 14.5332 23.6787C14.0034 22.3996 13.8648 20.9921 14.1349 19.6343C14.405 18.2764 15.0717 17.0291 16.0506 16.0502C17.0296 15.0712 18.2769 14.4045 19.6348 14.1344C20.9926 13.8643 22.4001 14.0029 23.6792 14.5327C24.9583 15.0626 26.0515 15.9598 26.8207 17.1109C27.5899 18.2621 28.0004 19.6154 28.0004 20.9999C28.0004 22.8564 27.2629 24.6369 25.9501 25.9497C24.6374 27.2624 22.8569 27.9999 21.0004 27.9999Z" fill="white"/>
</svg>
