<svg width="18" height="22" viewBox="0 0 18 22" fill="none" xmlns="http://www.w3.org/2000/svg">
<g clip-path="url(#clip0_2506_80281)">
<path fill-rule="evenodd" clip-rule="evenodd" d="M9 6.25C7.48104 6.25 6.25 7.48104 6.25 9C6.25 10.519 7.48104 11.75 9 11.75C10.519 11.75 11.75 10.519 11.75 9C11.75 7.48104 10.519 6.25 9 6.25ZM4.75 9C4.75 6.65262 6.65262 4.75 9 4.75C11.3474 4.75 13.25 6.65262 13.25 9C13.25 11.3474 11.3474 13.25 9 13.25C6.65262 13.25 4.75 11.3474 4.75 9Z" fill="#E31E24"/>
<path fill-rule="evenodd" clip-rule="evenodd" d="M9 6.25C7.48104 6.25 6.25 7.48104 6.25 9C6.25 10.519 7.48104 11.75 9 11.75C10.519 11.75 11.75 10.519 11.75 9C11.75 7.48104 10.519 6.25 9 6.25ZM4.75 9C4.75 6.65262 6.65262 4.75 9 4.75C11.3474 4.75 13.25 6.65262 13.25 9C13.25 11.3474 11.3474 13.25 9 13.25C6.65262 13.25 4.75 11.3474 4.75 9Z" fill="#F53036"/>
<path fill-rule="evenodd" clip-rule="evenodd" d="M9 2.25C5.26148 2.25 2.25 5.23284 2.25 8.88889C2.25 11.3692 3.95772 14.0901 5.82191 16.2874C6.73556 17.3643 7.65139 18.2748 8.33959 18.9165C8.59605 19.1556 8.82022 19.3568 9 19.5146C9.17978 19.3568 9.40395 19.1556 9.66041 18.9165C10.3486 18.2748 11.2644 17.3643 12.1781 16.2874C14.0423 14.0901 15.75 11.3692 15.75 8.88889C15.75 5.23284 12.7385 2.25 9 2.25ZM9 20.5L9.4718 21.083C9.19667 21.3057 8.80333 21.3057 8.5282 21.083L9 20.5ZM0.75 8.88889C0.75 4.38338 4.45424 0.75 9 0.75C13.5457 0.75 17.25 4.38338 17.25 8.88889C17.25 11.9503 15.2077 15.035 13.3219 17.2578C12.3606 18.3909 11.4014 19.3441 10.6833 20.0136C10.3238 20.3488 10.0235 20.6141 9.81196 20.7964C9.70615 20.8877 9.62245 20.9582 9.56455 21.0065C9.5356 21.0306 9.51309 21.0492 9.49748 21.062L9.4793 21.0769L9.47419 21.0811L9.47266 21.0823L9.47214 21.0827C9.47196 21.0829 9.4718 21.083 9 20.5C8.5282 21.083 8.52804 21.0829 8.52786 21.0827L8.52734 21.0823L8.52581 21.0811L8.5207 21.0769L8.50252 21.062C8.48691 21.0492 8.4644 21.0306 8.43545 21.0065C8.37755 20.9582 8.29385 20.8877 8.18804 20.7964C7.97649 20.6141 7.67618 20.3488 7.31666 20.0136C6.59861 19.3441 5.63944 18.3909 4.67809 17.2578C2.79228 15.035 0.75 11.9503 0.75 8.88889Z" fill="#E31E24"/>
<path fill-rule="evenodd" clip-rule="evenodd" d="M9 2.25C5.26148 2.25 2.25 5.23284 2.25 8.88889C2.25 11.3692 3.95772 14.0901 5.82191 16.2874C6.73556 17.3643 7.65139 18.2748 8.33959 18.9165C8.59605 19.1556 8.82022 19.3568 9 19.5146C9.17978 19.3568 9.40395 19.1556 9.66041 18.9165C10.3486 18.2748 11.2644 17.3643 12.1781 16.2874C14.0423 14.0901 15.75 11.3692 15.75 8.88889C15.75 5.23284 12.7385 2.25 9 2.25ZM9 20.5L9.4718 21.083C9.19667 21.3057 8.80333 21.3057 8.5282 21.083L9 20.5ZM0.75 8.88889C0.75 4.38338 4.45424 0.75 9 0.75C13.5457 0.75 17.25 4.38338 17.25 8.88889C17.25 11.9503 15.2077 15.035 13.3219 17.2578C12.3606 18.3909 11.4014 19.3441 10.6833 20.0136C10.3238 20.3488 10.0235 20.6141 9.81196 20.7964C9.70615 20.8877 9.62245 20.9582 9.56455 21.0065C9.5356 21.0306 9.51309 21.0492 9.49748 21.062L9.4793 21.0769L9.47419 21.0811L9.47266 21.0823L9.47214 21.0827C9.47196 21.0829 9.4718 21.083 9 20.5C8.5282 21.083 8.52804 21.0829 8.52786 21.0827L8.52734 21.0823L8.52581 21.0811L8.5207 21.0769L8.50252 21.062C8.48691 21.0492 8.4644 21.0306 8.43545 21.0065C8.37755 20.9582 8.29385 20.8877 8.18804 20.7964C7.97649 20.6141 7.67618 20.3488 7.31666 20.0136C6.59861 19.3441 5.63944 18.3909 4.67809 17.2578C2.79228 15.035 0.75 11.9503 0.75 8.88889Z" fill="#F53036"/>
</g>
<defs>
<clipPath id="clip0_2506_80281">
<rect width="18" height="22" fill="white"/>
</clipPath>
</defs>
</svg>
