<svg width="10" height="16" viewBox="0 0 10 16" fill="none" xmlns="http://www.w3.org/2000/svg">
<g clip-path="url(#clip0_2506_80276)">
<path fill-rule="evenodd" clip-rule="evenodd" d="M0.959397 0.626878C1.34992 0.236353 1.98309 0.236353 2.37361 0.626878L9.04027 7.29354C9.22781 7.48107 9.33316 7.73543 9.33316 8.00065C9.33316 8.26586 9.22781 8.52022 9.04027 8.70775L2.37361 15.3744C1.98308 15.7649 1.34992 15.7649 0.959396 15.3744C0.568872 14.9839 0.568873 14.3507 0.959398 13.9602L6.91895 8.00064L0.959397 2.04109C0.568873 1.65057 0.568873 1.0174 0.959397 0.626878Z" fill="#1872C5"/>
<path fill-rule="evenodd" clip-rule="evenodd" d="M0.959397 0.626878C1.34992 0.236353 1.98309 0.236353 2.37361 0.626878L9.04027 7.29354C9.22781 7.48107 9.33316 7.73543 9.33316 8.00065C9.33316 8.26586 9.22781 8.52022 9.04027 8.70775L2.37361 15.3744C1.98308 15.7649 1.34992 15.7649 0.959396 15.3744C0.568872 14.9839 0.568873 14.3507 0.959398 13.9602L6.91895 8.00064L0.959397 2.04109C0.568873 1.65057 0.568873 1.0174 0.959397 0.626878Z" fill="#2D84B1"/>
<path fill-rule="evenodd" clip-rule="evenodd" d="M0.959397 0.626878C1.34992 0.236353 1.98309 0.236353 2.37361 0.626878L9.04027 7.29354C9.22781 7.48107 9.33316 7.73543 9.33316 8.00065C9.33316 8.26586 9.22781 8.52022 9.04027 8.70775L2.37361 15.3744C1.98308 15.7649 1.34992 15.7649 0.959396 15.3744C0.568872 14.9839 0.568873 14.3507 0.959398 13.9602L6.91895 8.00064L0.959397 2.04109C0.568873 1.65057 0.568873 1.0174 0.959397 0.626878Z" fill="#2A91C6"/>
<path fill-rule="evenodd" clip-rule="evenodd" d="M0.959397 0.626878C1.34992 0.236353 1.98309 0.236353 2.37361 0.626878L9.04027 7.29354C9.22781 7.48107 9.33316 7.73543 9.33316 8.00065C9.33316 8.26586 9.22781 8.52022 9.04027 8.70775L2.37361 15.3744C1.98308 15.7649 1.34992 15.7649 0.959396 15.3744C0.568872 14.9839 0.568873 14.3507 0.959398 13.9602L6.91895 8.00064L0.959397 2.04109C0.568873 1.65057 0.568873 1.0174 0.959397 0.626878Z" fill="#1C84BE"/>
</g>
<defs>
<clipPath id="clip0_2506_80276">
<rect width="10" height="16" fill="white"/>
</clipPath>
</defs>
</svg>
