<svg width="18" height="18" viewBox="0 0 18 18" fill="none" xmlns="http://www.w3.org/2000/svg">
<g clip-path="url(#clip0_2506_80268)">
<path fill-rule="evenodd" clip-rule="evenodd" d="M7.66667 1.75C4.39898 1.75 1.75 4.39898 1.75 7.66667C1.75 10.9344 4.39898 13.5833 7.66667 13.5833C10.9344 13.5833 13.5833 10.9344 13.5833 7.66667C13.5833 4.39898 10.9344 1.75 7.66667 1.75ZM0.25 7.66667C0.25 3.57056 3.57056 0.25 7.66667 0.25C11.7628 0.25 15.0833 3.57056 15.0833 7.66667C15.0833 11.7628 11.7628 15.0833 7.66667 15.0833C3.57056 15.0833 0.25 11.7628 0.25 7.66667Z" fill="#747883"/>
<path fill-rule="evenodd" clip-rule="evenodd" d="M12.0253 12.0253C12.3182 11.7324 12.7931 11.7324 13.086 12.0253L17.5304 16.4697C17.8233 16.7626 17.8233 17.2375 17.5304 17.5304C17.2375 17.8233 16.7626 17.8233 16.4697 17.5304L12.0253 13.086C11.7324 12.7931 11.7324 12.3182 12.0253 12.0253Z" fill="#747883"/>
</g>
<defs>
<clipPath id="clip0_2506_80268">
<rect width="18" height="18" fill="white"/>
</clipPath>
</defs>
</svg>
