<svg width="20" height="20" viewBox="0 0 20 20" fill="none" xmlns="http://www.w3.org/2000/svg">
<g clip-path="url(#clip0_2506_80264)">
<path d="M1.66634 2.50066H2.61026L2.98385 5.11575L3.86402 11.5851C3.91623 11.9689 3.96162 12.3026 4.02065 12.577C4.08337 12.8686 4.17306 13.1543 4.34467 13.4244C4.60302 13.8312 4.9734 14.1546 5.41124 14.3557C5.70207 14.4893 5.99724 14.5397 6.2946 14.5625C6.57449 14.584 6.91122 14.584 7.29861 14.584H14.4881C14.8565 14.584 15.1777 14.584 15.4455 14.564C15.7307 14.5427 16.0136 14.4958 16.2946 14.372C16.7191 14.1851 17.0832 13.8838 17.3463 13.5018C17.5204 13.2488 17.6195 12.9797 17.6938 12.7036C17.7635 12.4443 17.8236 12.1288 17.8925 11.7669L19.005 5.92634C19.0272 5.81003 19.0528 5.67585 19.0648 5.55753C19.0784 5.42442 19.0862 5.22208 19.0081 5.00108C18.9095 4.72175 18.7149 4.48654 18.4589 4.33737C18.2564 4.21935 18.0562 4.18918 17.9229 4.17756C17.8044 4.16723 17.6678 4.16728 17.5494 4.16732L4.53194 4.16733L4.2373 2.10477C4.22505 2.01878 4.21009 1.91377 4.18959 1.82138C4.16546 1.71258 4.12213 1.56234 4.02363 1.40886C3.89412 1.20706 3.7093 1.04676 3.49121 0.947094C3.32534 0.871288 3.17048 0.849642 3.05937 0.841137C2.965 0.833914 2.85894 0.833955 2.77208 0.833989L1.66634 0.833993C1.2061 0.833993 0.833008 1.20709 0.833008 1.66733C0.833008 2.12757 1.2061 2.50066 1.66634 2.50066Z" fill="white"/>
<path d="M5.83301 17.5007C5.83301 16.5802 6.5792 15.834 7.49967 15.834C8.42015 15.834 9.16634 16.5802 9.16634 17.5007C9.16634 18.4211 8.42015 19.1673 7.49967 19.1673C6.5792 19.1673 5.83301 18.4211 5.83301 17.5007Z" fill="white"/>
<path d="M12.4995 17.5007C12.4995 16.5802 13.2457 15.834 14.1661 15.834C15.0866 15.834 15.8328 16.5802 15.8328 17.5007C15.8328 18.4211 15.0866 19.1673 14.1661 19.1673C13.2457 19.1673 12.4995 18.4211 12.4995 17.5007Z" fill="white"/>
</g>
<defs>
<clipPath id="clip0_2506_80264">
<rect width="20" height="20" fill="white"/>
</clipPath>
</defs>
</svg>
