<svg width="26" height="26" viewBox="0 0 26 26" fill="none" xmlns="http://www.w3.org/2000/svg">
<path fill-rule="evenodd" clip-rule="evenodd" d="M14.6957 7.80559C13.6215 6.73146 11.8799 6.73147 10.8057 7.80562C9.73142 8.87991 9.73145 10.6215 10.8057 11.6957L10.8057 11.6957C11.8799 12.7699 13.6215 12.7699 14.6957 11.6957C15.7698 10.6215 15.7699 8.87992 14.6957 7.80562C14.6957 7.80561 14.6957 7.8056 14.6957 7.80559ZM9.3915 6.3914C11.2467 4.5362 14.2547 4.5362 16.1099 6.3914L16.1099 6.39143C17.9651 8.24673 17.9651 11.2547 16.1099 13.1099C14.2547 14.9651 11.2467 14.9651 9.39152 13.1099C7.53615 11.2547 7.53618 8.24671 9.39149 6.3914L9.3915 6.3914Z" fill="#F53036"/>
<path fill-rule="evenodd" clip-rule="evenodd" d="M4.27468 20.5903C6.36755 18.3852 9.32445 17 12.6094 17C15.8942 17 18.8511 18.3851 20.9438 20.5887C21.3241 20.9891 21.3078 21.6221 20.9073 22.0024C20.5069 22.3827 19.8739 22.3664 19.4936 21.9659C17.7597 20.1403 15.3192 19 12.6094 19C9.89951 19 7.45922 20.1402 5.72533 21.9671C5.34513 22.3677 4.71218 22.3842 4.3116 22.004C3.91101 21.6238 3.89448 20.9909 4.27468 20.5903Z" fill="#F53036"/>
<path fill-rule="evenodd" clip-rule="evenodd" d="M20.7782 5.22183C16.4824 0.926058 9.51758 0.92606 5.22182 5.22182C0.926061 9.51758 0.926057 16.4824 5.22182 20.7782C9.51757 25.0739 16.4824 25.0739 20.7782 20.7782M20.7782 5.22183C25.0739 9.51757 25.0739 16.4824 20.7782 20.7782ZM22.1924 3.80761C27.2691 8.88441 27.2691 17.1156 22.1924 22.1924C17.1156 27.2691 8.88442 27.2691 3.80762 22.1924C-1.2692 17.1156 -1.2692 8.88442 3.80761 3.80761C8.88442 -1.26921 17.1156 -1.2692 22.1924 3.80761Z" fill="#F53036"/>
</svg>
